<?xml version="1.0" standalone="no"?><!DOCTYPE svg PUBLIC "-//W3C//DTD SVG 1.1//EN" "http://www.w3.org/Graphics/SVG/1.1/DTD/svg11.dtd"><svg t="1668693196136" class="icon" viewBox="0 0 1024 1024" version="1.1" xmlns="http://www.w3.org/2000/svg" p-id="4779" width="200" height="200" xmlns:xlink="http://www.w3.org/1999/xlink"><path d="M511.561143 914.578286a38.180571 38.180571 0 0 0 23.552-7.68 40.301714 40.301714 0 0 0 14.336-19.968l233.472-718.848a36.717714 36.717714 0 0 0-5.632-34.816 47.030857 47.030857 0 0 0-19.968-15.36 56.466286 56.466286 0 0 0-11.264-2.048 38.180571 38.180571 0 0 0-23.552 7.68 40.301714 40.301714 0 0 0-14.336 19.968l-196.608 623.616L315.977143 143.506286a47.030857 47.030857 0 0 0-15.36-19.968 36.717714 36.717714 0 0 0-22.528-7.68c-2.048 0-5.851429 0.731429-11.264 2.048a37.522286 37.522286 0 0 0-27.648 36.864c0 3.437714 0.731429 7.826286 2.048 13.312l233.472 718.848a40.301714 40.301714 0 0 0 14.336 19.968c6.802286 5.12 14.336 7.68 22.528 7.68z" p-id="4780" fill="#000000"></path></svg>